<?xml version="1.0" encoding="UTF-8" standalone="no"?>
<svg width="49px" height="49px" viewBox="0 0 49 49" version="1.1" xmlns="http://www.w3.org/2000/svg" xmlns:xlink="http://www.w3.org/1999/xlink" xmlns:sketch="http://www.bohemiancoding.com/sketch/ns">
    <title>anon</title>
    <description>Created with Sketch (http://www.bohemiancoding.com/sketch)</description>
    <defs></defs>
    <g id="icons" stroke="none" stroke-width="1" fill="none" fill-rule="evenodd">
        <g id="Group" fill="#000000">
            <path d="M24.2458438,38.998698 C32.3460205,38.998698 38.9125105,32.432208 38.9125105,24.3320312 C38.9125105,16.2318545 32.3460205,9.66536458 24.2458438,9.66536458 C16.145667,9.66536458 9.57917708,16.2318545 9.57917708,24.3320312 C9.57917708,32.432208 16.145667,38.998698 24.2458438,38.998698 L24.2458438,38.998698 Z M24.2458438,38.998698" id="Oval 14" fill-opacity="0.1"></path>
            <path d="M5.24684705,0.33203125 C2.48486919,0.33203125 0.24584375,2.56682148 0.24584375,5.33303455 L0.24584375,43.3310279 C0.24584375,46.0930058 2.48063398,48.3320312 5.24684705,48.3320312 L43.2448405,48.3320312 C46.0068184,48.3320312 48.2458438,46.0972411 48.2458438,43.3310279 L48.2458438,5.33303455 C48.2458438,2.57105669 46.0110536,0.33203125 43.2448405,0.33203125 L5.24684705,0.33203125 L5.24684705,0.33203125 Z M5.24684705,0.33203125" id="Rectangle 6" opacity="0.05"></path>
        </g>
        <g id="Group" transform="translate(8.000000, 8.000000)" fill="#6D6D6D">
            <path d="M0.24584375,16.3320312 C0.24584375,7.49547482 7.40928732,0.33203125 16.2458438,0.33203125 C25.0824002,0.33203125 32.2458438,7.49547482 32.2458438,16.3320312 C32.2458438,25.1685877 25.0824002,32.3320312 16.2458438,32.3320312 C7.40928732,32.3320312 0.24584375,25.1685877 0.24584375,16.3320312 Z M29.2269758,16.3320312 C29.2269758,9.16274961 23.4151254,3.35089917 16.2458438,3.35089917 C9.07656211,3.35089917 3.26471167,9.16274961 3.26471167,16.3320312 C3.26471167,23.5013129 9.07656211,29.3131633 16.2458438,29.3131633 C23.4151254,29.3131633 29.2269758,23.5013129 29.2269758,16.3320312 Z M29.2269758,16.3320312" id="Oval 1 copy"></path>
            <path d="M10.2081079,14.2188237 C11.3752003,14.2188237 12.3213154,12.8672306 12.3213154,11.1999558 C12.3213154,9.53268098 11.3752003,8.18108785 10.2081079,8.18108785 C9.04101554,8.18108785 8.09490035,9.53268098 8.09490035,11.1999558 C8.09490035,12.8672306 9.04101554,14.2188237 10.2081079,14.2188237 Z M10.2081079,14.2188237" id="Oval 1 copy"></path>
            <path d="M22.2835796,14.2188237 C23.450672,14.2188237 24.3967871,12.8672306 24.3967871,11.1999558 C24.3967871,9.53268098 23.450672,8.18108785 22.2835796,8.18108785 C21.1164872,8.18108785 20.1703721,9.53268098 20.1703721,11.1999558 C20.1703721,12.8672306 21.1164872,14.2188237 22.2835796,14.2188237 Z M22.2835796,14.2188237" id="Oval 1 copy 2"></path>
            <path d="M6.30324491,16.3975873 C8.92539935,18.0358127 12.5472485,19.0490124 16.5477305,19.0490124 C20.2360249,19.0490124 23.6024755,18.1877777 26.1603446,16.7695196 C25.6672217,22.1162313 21.4165714,26.2942954 16.2458438,26.2942954 C10.9558091,26.2942954 6.62880056,21.9212015 6.30324491,16.3975873 Z M6.30324491,16.3975873" id="Oval 4 copy"></path>
        </g>
    </g>
</svg>